<svg aria-hidden="true" style="position: absolute; width: 0; height: 0; overflow: hidden;" version="1.1" xmlns="http://www.w3.org/2000/svg" xmlns:xlink="http://www.w3.org/1999/xlink">
<defs>
<symbol id="icon-clock-icon" viewBox="0 0 32 32">
<path d="M16 2.667c-7.351 0-13.333 5.982-13.333 13.333s5.982 13.333 13.333 13.333 13.333-5.982 13.333-13.333-5.982-13.333-13.333-13.333zM16 26.667c-5.882 0-10.667-4.785-10.667-10.667s4.785-10.667 10.667-10.667 10.667 4.785 10.667 10.667-4.785 10.667-10.667 10.667z"></path>
<path d="M17.333 9.333h-2.667v7.219l4.39 4.39 1.886-1.886-3.61-3.609z"></path>
</symbol>
<symbol id="icon-google-icon" viewBox="0 0 32 32">
<path d="M28 15.72c0 5.533-2.947 12.28-11.827 12.28-0.024 0-0.052 0-0.080 0-6.646 0-12.040-5.361-12.093-11.995l-0-0.005c0.053-6.639 5.447-12 12.093-12 0.028 0 0.056 0 0.085 0l-0.004-0c2.885 0.011 5.534 1.014 7.625 2.686l-0.025-0.019c0.145 0.119 0.24 0.294 0.253 0.491l0 0.002c0 0.001 0 0.002 0 0.003 0 0.202-0.081 0.385-0.213 0.517l0-0c-0.874 0.8-1.684 1.618-2.451 2.474l-0.029 0.033c-0.12 0.132-0.292 0.214-0.484 0.214-0.15 0-0.288-0.050-0.398-0.135l0.002 0.001c-1.116-0.835-2.524-1.337-4.049-1.337-0.077 0-0.153 0.001-0.229 0.004l0.011-0c-3.94 0-7.133 3.194-7.133 7.133s3.194 7.133 7.133 7.133v0c4 0 5.693-1.707 6.573-4.733h-6.093c-0.368 0-0.667-0.298-0.667-0.667v0-3.533c0-0.368 0.298-0.667 0.667-0.667v0h10.667c0.001 0 0.002 0 0.004 0 0.308 0 0.562 0.232 0.596 0.531l0 0.003q0.075 0.792 0.067 1.587z"></path>
</symbol>
<symbol id="icon-heart-icon" viewBox="0 0 32 32">
<path d="M16 6.127c-1.397-1.288-3.27-2.078-5.328-2.078-1.098 0-2.144 0.225-3.093 0.631l0.051-0.020c-1.002 0.424-1.857 1.010-2.574 1.732l-0 0c-3.137 3.152-3.136 8.080 0.001 11.216l9.776 9.776c0.233 0.398 0.659 0.66 1.145 0.66 0.225 0 0.436-0.056 0.622-0.155l-0.007 0.003c0.187-0.097 0.341-0.231 0.46-0.393l0.003-0.004 9.887-9.888c3.139-3.137 3.139-8.064-0.001-11.22-1.433-1.444-3.419-2.338-5.613-2.339h-0c-1.972 0-3.875 0.742-5.328 2.077"></path>
</symbol>
<symbol id="icon-icon-terakot" viewBox="0 0 32 32">
<path d="M3.544 9.904c-0.105 1.898 0.146 3.14 0.836 4.282 0.698 1.155 1.853 2.226 3.61 3.765 4.823 3.81 5.921 4.882 6.83 6.251l0.018 0.025 0.008 0.028c0.411 1.386 0.457 3.189 0.404 4.632-0.034 0.882-0.098 1.698-0.195 2.504l0.014-0.144-0.019 0.146-0.004 0.038-0.002 0.011-0.001 0.002v0.002l-0.074 0.528-0.307-0.473-0.002-0.002-0.005-0.007-0.018-0.029-0.082-0.116q-0.11-0.157-0.345-0.454c-0.491-0.605-0.979-1.147-1.492-1.663l0.001 0.001c-1.376-1.396-3.554-3.303-6.754-5.336l-0.010-0.007-0.008-0.006c-2.643-2.055-4.275-3.869-5.146-5.52-0.874-1.657-0.978-3.145-0.581-4.528l0.004-0.014 0.006-0.012c0.546-1.138 1.188-2.118 1.939-3.003l-0.016 0.020c0.31-0.364 0.622-0.695 0.951-1.008l0.005-0.005 0.059-0.055 0.016-0.013 0.003-0.004 0.002-0.001 0.001-0.001 0.381-0.33zM28.767 9.738l0.002 0.002 0.005 0.004 0.016 0.013 0.058 0.055q0.078 0.072 0.218 0.21c1.066 1.074 1.957 2.325 2.625 3.704l0.036 0.082 0.006 0.013 0.003 0.014c0.397 1.383 0.294 2.87-0.58 4.528-0.87 1.651-2.502 3.465-5.145 5.52l-0.009 0.006-0.010 0.006c-3.201 2.034-5.378 3.941-6.754 5.337-0.688 0.698-1.176 1.268-1.49 1.662-0.129 0.16-0.27 0.345-0.405 0.536l-0.023 0.035-0.019 0.029-0.004 0.007-0.002 0.002-0.307 0.472-0.073-0.528v-0.002l-0.002-0.011q-0.002-0.012-0.006-0.038l-0.018-0.146c-0.083-0.663-0.148-1.48-0.18-2.305l-0.002-0.056c-0.052-1.443-0.006-3.246 0.404-4.632l0.009-0.028 0.018-0.025c0.91-1.369 2.007-2.442 6.83-6.251 1.758-1.539 2.912-2.61 3.61-3.765 0.69-1.142 0.941-2.384 0.835-4.282l-0.027-0.497zM15.135 13.606l-4.326-3.866c-0.096-0.085-0.257-0.139-0.437-0.139s-0.342 0.054-0.438 0.14c-0.083 0.074-0.136 0.186-0.084 0.37 0.056 0.201 0.238 0.488 0.654 0.86l2.853 2.548c0.717 0.644 1.257 1.472 1.546 2.41l0.010 0.038c0.11 0.363 0.166 0.678 0.194 0.902 0.013 0.096 0.022 0.213 0.027 0.331l0 0.008v5.674l-0.352-0.421c-0.844-1.005-2.826-2.776-4.687-4.438-0.926-0.827-1.82-1.626-2.518-2.28-0.349-0.328-0.65-0.622-0.884-0.866-0.217-0.228-0.387-0.428-0.477-0.578-0.882-1.182-1.183-2.343-1.127-3.418 0.056-1.072 0.464-2.044 0.975-2.859s1.13-1.48 1.619-1.941c0.256-0.242 0.53-0.476 0.815-0.695l0.025-0.018 0.014-0.010 6.597-5.358zM17.131 0.264l6.334 5.138q0.065 0.048 0.18 0.142c0.152 0.123 0.366 0.304 0.61 0.534 0.49 0.461 1.109 1.127 1.62 1.942s0.919 1.788 0.974 2.859c0.056 1.075-0.244 2.236-1.126 3.418-0.090 0.15-0.26 0.35-0.478 0.578-0.233 0.245-0.534 0.539-0.883 0.866-0.698 0.654-1.592 1.453-2.518 2.28-1.861 1.662-3.843 3.434-4.687 4.438l-0.353 0.421v-5.673l0.004-0.074c0.003-0.062 0.010-0.153 0.024-0.265 0.045-0.342 0.113-0.647 0.205-0.941l-0.011 0.040c0.299-0.976 0.839-1.804 1.55-2.444l0.005-0.004 2.854-2.548c0.416-0.371 0.598-0.659 0.654-0.86 0.052-0.184 0-0.296-0.083-0.37-0.096-0.086-0.258-0.14-0.438-0.14s-0.341 0.054-0.437 0.14l-4.327 3.865v-13.606z"></path>
</symbol>
<symbol id="icon-instagram-icon" viewBox="0 0 32 32">
<path d="M21.333 4.324h-10.667c-3.682 0-6.667 2.985-6.667 6.667v0 10.667c0 3.682 2.985 6.667 6.667 6.667v0h10.667c3.682 0 6.667-2.985 6.667-6.667v0-10.667c0-3.682-2.985-6.667-6.667-6.667v0zM25.667 21.657c-0.008 2.39-1.943 4.326-4.333 4.333h-10.667c-2.39-0.008-4.326-1.943-4.333-4.333v-10.667c0.008-2.39 1.943-4.326 4.333-4.333h10.667c2.39 0.008 4.326 1.943 4.333 4.333v0.001zM22.333 11.324c0.736 0 1.333-0.597 1.333-1.333s-0.597-1.333-1.333-1.333v0c-0.736 0-1.333 0.597-1.333 1.333s0.597 1.333 1.333 1.333v0zM16 10.324c-3.314 0-6 2.686-6 6s2.686 6 6 6c3.314 0 6-2.686 6-6v0c0-0.004 0-0.009 0-0.013 0-3.306-2.68-5.987-5.987-5.987-0.005 0-0.009 0-0.014 0h0.001zM12.333 16.324c0 2.025 1.642 3.667 3.667 3.667s3.667-1.642 3.667-3.667v0c0-2.025-1.642-3.667-3.667-3.667s-3.667 1.642-3.667 3.667v0z"></path>
</symbol>
<symbol id="icon-magazin-icon" viewBox="0 0 32 32">
<path d="M29.333 6.667c-0.003-2.208-1.792-3.997-4-4h-18.667c-2.208 0.003-3.997 1.792-4 4v3.775c0 1.404 0.51 2.679 1.333 3.661v11.231c0 1.471 1.196 2.667 2.667 2.667h18.667c1.471 0 2.667-1.196 2.667-2.667v-11.232c0.829-0.98 1.333-2.258 1.333-3.654 0-0.003 0-0.005 0-0.008v0zM26.667 6.667v3.775c0 1.52-1.132 2.816-2.522 2.89l-0.145 0.002c-1.473 0-2.667-1.194-2.667-2.667v0-5.333h4c0.736 0 1.333 0.598 1.333 1.333zM13.333 5.333h5.333v5.333c0 1.471-1.196 2.667-2.667 2.667-1.473 0-2.667-1.194-2.667-2.667v0zM5.333 6.667c0-0.735 0.597-1.333 1.333-1.333h4v5.333c0 1.471-1.196 2.667-2.667 2.667l-0.145-0.004c-1.391-0.070-2.522-1.367-2.522-2.886zM13.333 25.333v-4h5.333v4zM21.333 25.333v-4c0-1.471-1.196-2.667-2.667-2.667h-5.333c-1.473 0-2.667 1.194-2.667 2.667v0 4h-4v-9.508c0.338 0.090 0.689 0.148 1.050 0.166 0.087 0.005 0.189 0.008 0.291 0.008 1.589 0 3.014-0.697 3.988-1.803l0.005-0.006c0.98 1.112 2.408 1.809 3.998 1.809 0.001 0 0.001 0 0.002 0h-0c0.001 0 0.001 0 0.002 0 1.59 0 3.018-0.697 3.993-1.803l0.005-0.006c0.979 1.111 2.404 1.809 3.993 1.809 0.102 0 0.204-0.003 0.305-0.009l-0.014 0.001c0.362-0.018 0.711-0.077 1.050-0.166v9.508z"></path>
</symbol>
<symbol id="icon-menu-icon" viewBox="0 0 32 32">
<path d="M5.334 8h21.333v2.666h-21.333zM5.334 14.666h21.333v2.667h-21.333zM5.334 21.334h21.333v2.666h-21.333z"></path>
</symbol>
<symbol id="icon-meseger-icon" viewBox="0 0 32 32">
<path d="M26.667 5.333h-21.333c-1.472 0.002-2.665 1.195-2.667 2.667v16c0 1.471 1.196 2.667 2.667 2.667h21.333c1.471 0 2.667-1.196 2.667-2.667v-16c0-1.471-1.196-2.667-2.667-2.667zM26.667 8v0.682l-10.667 8.298-10.667-8.297v-0.683zM5.333 24v-11.941l9.849 7.66c0.223 0.177 0.508 0.283 0.818 0.283s0.595-0.107 0.821-0.285l-0.003 0.002 9.849-7.66 0.003 11.941z"></path>
</symbol>
<symbol id="icon-phone-icon" viewBox="0 0 32 32">
<path d="M23.61 16.39c-0.241-0.241-0.574-0.39-0.942-0.39s-0.701 0.149-0.942 0.39l-2.126 2.126c-0.986-0.293-2.823-0.96-3.989-2.126-1.165-1.165-1.831-3.004-2.125-3.989l2.125-2.125c0.241-0.241 0.391-0.575 0.391-0.943s-0.149-0.702-0.391-0.943l-5.333-5.333c-0.241-0.241-0.574-0.39-0.942-0.39s-0.701 0.149-0.942 0.39l-3.616 3.616c-0.483 0.483-0.782 1.15-0.782 1.887 0 0.009 0 0.019 0 0.028v-0.001c0.031 1.899 0.533 8.493 5.731 13.691 5.197 5.197 11.792 5.698 13.692 5.73h0.037c0.704 0 1.37-0.277 1.873-0.781l3.616-3.616c0.241-0.241 0.391-0.575 0.391-0.943s-0.149-0.702-0.391-0.943v0zM23.44 25.34c-1.664-0.028-7.357-0.475-11.829-4.949-4.489-4.487-4.924-10.201-4.949-11.831l2.672-2.673 3.449 3.447-1.724 1.724c-0.242 0.241-0.391 0.575-0.391 0.943 0 0.097 0.010 0.191 0.030 0.282l-0.002-0.009c0.032 0.154 0.814 3.79 3.027 6.003s5.85 2.995 6.003 3.028c0.083 0.019 0.178 0.029 0.276 0.029 0.367 0 0.7-0.15 0.94-0.392l1.725-1.724 3.449 3.449z"></path>
</symbol>
<symbol id="icon-right-arrow-alt-icon" viewBox="0 0 32 32">
<path d="M15.057 23.057l1.885 1.885 8.943-8.943-8.943-8.943-1.885 1.885 5.724 5.724h-12.781v2.667h12.781z"></path>
</symbol>
<symbol id="icon-x-icon" viewBox="0 0 32 32">
<path d="M21.59 8.459l-5.658 5.656-5.656-5.656-1.886 1.885 5.656 5.656-5.656 5.656 1.886 1.886 5.656-5.656 5.658 5.656 1.885-1.886-5.656-5.656 5.656-5.656z"></path>
</symbol>
</defs>
</svg>
